<?xml version="1.0" encoding="UTF-8"?>
<svg width="48px" height="48px" viewBox="0 0 48 48" version="1.1" xmlns="http://www.w3.org/2000/svg" xmlns:xlink="http://www.w3.org/1999/xlink">
    <title>5E0599F3-32AA-4D3A-A00B-2F33953AE78E</title>
    <defs>
        <linearGradient x1="17.8759329%" y1="-6.51031712%" x2="82.1241512%" y2="106.510402%" id="linearGradient-1">
            <stop stop-color="#18884F" offset="0%"></stop>
            <stop stop-color="#117E43" offset="50%"></stop>
            <stop stop-color="#0B6631" offset="100%"></stop>
        </linearGradient>
    </defs>
    <g id="UI-kit" stroke="none" stroke-width="1" fill="none" fill-rule="evenodd">
        <g id="Connectors" transform="translate(-620.000000, -2320.000000)" fill-rule="nonzero">
            <g id="Connector/Ably-Copy-145" transform="translate(620.000000, 2320.000000)">
                <g id="Microsoft_Office_Excel_(2019–present)" transform="translate(0.000000, 2.000000)">
                    <path d="M30.1395349,21.375 L11.1627907,18 L11.1627907,42.9378803 C11.1627907,44.0767606 12.0788732,45 13.208925,45 L13.208925,45 L45.9538657,45 C47.0839175,45 48,44.0767606 48,42.9378803 L48,42.9378803 L48,33.75 L30.1395349,21.375 Z" id="Path" fill="#185C37"></path>
                    <path d="M30.1395349,0 L13.208925,0 C12.0788732,0 11.1627907,0.923239437 11.1627907,2.06211972 C11.1627907,2.06211972 11.1627907,2.06211972 11.1627907,2.06211972 L11.1627907,11.25 L30.1395349,22.5 L40.1860465,25.875 L48,22.5 L48,11.25 L30.1395349,0 Z" id="Path" fill="#21A366"></path>
                    <polygon id="Path" fill="#107C41" points="11.1627907 11.25 30.1395349 11.25 30.1395349 22.5 11.1627907 22.5"></polygon>
                    <path d="M24.7445634,9 L11.1627907,9 L11.1627907,37.125 L24.7445634,37.125 C25.8730848,37.1213028 26.7870292,36.2002183 26.7906977,35.0628803 L26.7906977,11.0621197 C26.7870292,9.92478169 25.8730848,9.00369718 24.7445634,9 Z" id="Path" fill="#000000" opacity="0.1"></path>
                    <path d="M23.6282843,10.125 L11.1627907,10.125 L11.1627907,38.25 L23.6282843,38.25 C24.7568058,38.2463028 25.6707501,37.3252183 25.6744186,36.1878803 L25.6744186,12.1871197 C25.6707501,11.0497817 24.7568058,10.1286972 23.6282843,10.125 Z" id="Path" fill="#000000" opacity="0.2"></path>
                    <path d="M23.6282843,10.125 L11.1627907,10.125 L11.1627907,36 L23.6282843,36 C24.7568058,35.9963028 25.6707501,35.0752183 25.6744186,33.9378803 L25.6744186,12.1871197 C25.6707501,11.0497817 24.7568058,10.1286972 23.6282843,10.125 Z" id="Path" fill="#000000" opacity="0.2"></path>
                    <path d="M22.5120052,10.125 L11.1627907,10.125 L11.1627907,36 L22.5120052,36 C23.6405267,35.9963028 24.554471,35.0752183 24.5581395,33.9378803 L24.5581395,12.1871197 C24.554471,11.0497817 23.6405267,10.1286972 22.5120052,10.125 Z" id="Path" fill="#000000" opacity="0.2"></path>
                    <path d="M2.04613429,10.125 L22.5119843,10.125 C23.642036,10.125 24.5581186,11.0482394 24.5581186,12.1871197 L24.5581186,32.8128592 C24.5581186,33.9517394 23.642036,34.8749789 22.5119843,34.8749789 L2.04613429,34.8749789 C0.916082542,34.8749789 0,33.9517606 0,32.8128803 L0,12.1871197 C0,11.0482394 0.916082542,10.125 2.04613429,10.125 Z" id="Path" fill="url(#linearGradient-1)"></path>
                    <path d="M6.33711104,29.2027606 L10.6414831,22.4808803 L6.69767442,15.7961197 L9.87012905,15.7961197 L12.0223151,20.0711197 C12.2210233,20.4772394 12.3571988,20.7787394 12.4308837,20.9778592 L12.4587855,20.9778592 C12.6001808,20.6538592 12.749018,20.3392394 12.9052971,20.0339789 L15.205943,15.7983803 L18.1183099,15.7983803 L14.0740255,22.4437606 L18.2210285,29.2027606 L15.1222378,29.2027606 L12.6362791,24.5103803 C12.5191798,24.3107324 12.4198153,24.1010282 12.3393593,23.8837606 L12.3025274,23.8837606 C12.2297019,24.0966127 12.1330835,24.3004225 12.0145169,24.4912606 L9.4548942,29.2027606 L6.33711104,29.2027606 Z" id="Path" fill="#FFFFFF"></path>
                    <path d="M45.9538657,0 L30.1395349,0 L30.1395349,11.25 L48,11.25 L48,2.06211972 C48,0.923239437 47.0839175,0 45.9538657,0 L45.9538657,0 Z" id="Path" fill="#33C481"></path>
                    <polygon id="Path" fill="#107C41" points="30.1395349 22.5 48 22.5 48 33.75 30.1395349 33.75"></polygon>
                </g>
            </g>
        </g>
    </g>
</svg>